<svg xmlns="http://www.w3.org/2000/svg" width="114.01" height="35" viewBox="0 0 114.01 35"><rect class="svg__rect" x="0" y="0" width="54.760000000000005" height="35" fill="#F1F713"/><rect class="svg__rect" x="52.760000000000005" y="0" width="61.25" height="35" fill="#DEE40A"/><path class="svg__text" d="M14.08 19.16L14.08 19.16L14.08 13.47L15.56 13.47L15.56 19.18Q15.56 20.03 15.99 20.48Q16.43 20.93 17.27 20.93L17.27 20.93Q18.98 20.93 18.98 19.13L18.98 19.13L18.98 13.47L20.46 13.47L20.46 19.17Q20.46 20.53 19.59 21.32Q18.72 22.12 17.27 22.12L17.27 22.12Q15.81 22.12 14.94 21.33Q14.08 20.55 14.08 19.16ZM24.59 19.42L24.59 19.42L26.08 19.42Q26.08 20.15 26.56 20.55Q27.04 20.95 27.93 20.95L27.93 20.95Q28.71 20.95 29.10 20.63Q29.49 20.32 29.49 19.80L29.49 19.80Q29.49 19.24 29.09 18.94Q28.70 18.63 27.66 18.32Q26.63 18.01 26.02 17.63L26.02 17.63Q24.86 16.90 24.86 15.72L24.86 15.72Q24.86 14.69 25.70 14.02Q26.54 13.35 27.88 13.35L27.88 13.35Q28.77 13.35 29.47 13.68Q30.17 14.01 30.56 14.61Q30.96 15.22 30.96 15.96L30.96 15.96L29.49 15.96Q29.49 15.29 29.07 14.91Q28.65 14.54 27.87 14.54L27.87 14.54Q27.14 14.54 26.74 14.85Q26.34 15.16 26.34 15.71L26.34 15.71Q26.34 16.18 26.77 16.50Q27.21 16.81 28.20 17.10Q29.20 17.40 29.80 17.78Q30.41 18.16 30.69 18.65Q30.97 19.13 30.97 19.79L30.97 19.79Q30.97 20.86 30.15 21.49Q29.33 22.12 27.93 22.12L27.93 22.12Q27.01 22.12 26.23 21.77Q25.46 21.43 25.02 20.83Q24.59 20.22 24.59 19.42ZM40.84 22L35.26 22L35.26 13.47L40.80 13.47L40.80 14.66L36.74 14.66L36.74 17.02L40.24 17.02L40.24 18.19L36.74 18.19L36.74 20.82L40.84 20.82L40.84 22Z" fill="#C77A1B"/><path class="svg__text" d="M69.28 22L66.95 22L66.95 13.60L68.90 13.60L72.61 18.07L72.61 13.60L74.94 13.60L74.94 22L72.99 22L69.28 17.52L69.28 22ZM82.48 22L80.10 22L80.10 13.60L83.95 13.60Q85.08 13.60 85.92 13.98Q86.76 14.35 87.22 15.06Q87.68 15.76 87.68 16.71L87.68 16.71Q87.68 17.66 87.22 18.35Q86.76 19.05 85.92 19.42Q85.08 19.80 83.95 19.80L83.95 19.80L82.48 19.80L82.48 22ZM82.48 15.47L82.48 17.93L83.80 17.93Q84.53 17.93 84.90 17.61Q85.28 17.29 85.28 16.71L85.28 16.71Q85.28 16.12 84.90 15.80Q84.53 15.47 83.80 15.47L83.80 15.47L82.48 15.47ZM94.63 22L92.43 22L92.43 13.60L94.39 13.60L97.34 18.45L100.22 13.60L102.17 13.60L102.20 22L100.02 22L99.99 17.55L97.83 21.17L96.78 21.17L94.63 17.67L94.63 22Z" fill="#CA7307" x="65.76"/></svg>